# xmcd CD database file generated by Grip 2.92
# 
# Track frame offsets:
#       150
#       14360
#       29216
#       43291
#       58454
#       71996
#       85244
#       98073
#       111750
#       124755
#       137203
#       149903
#       162943
#       177941
#       189615
#       202487
#       217837
#       231483
#       244444
#       256428
#       269694
#       283093
#       295942
#       307734
# 
# Disc length: 4291 seconds
# 
# Revision: 3
# Processed by: cddbd v1.4b41PL1 Copyright (c) Steve Scherf et al.
# Submitted via: Grip 2.92
# 
DISCID=9710c118
DTITLE=Allen Brothers - Complete Recorded Works, Vol. 1
DYEAR=1900
DGENRE=
TTITLE0=Salty Dog Blues
TTITLE1=Bow Wow Blues
TTITLE2=Chattanooga Blues
TTITLE3=Laughin' and Cryin' Blues
TTITLE4=Ain't That Skippin' and Flyin'
TTITLE5=Cheat 'Em
TTITLE6=Frisco Blues
TTITLE7=Tiple Blues
TTITLE8=Free A Little Bird
TTITLE9=Skipping and Flying
TTITLE10=Prissoner's Dream
TTITLE11=I'll Be All Smiles Tonight
TTITLE12=I've Got The Chain Store Blues
TTITLE13=Jake Walk Blues
TTITLE14=The Enforcement Blues
TTITLE15=Reckless Night Blues
TTITLE16=New Chattanooga Blues
TTITLE17=Shanghai Rooster Blues
TTITLE18=Price of Cotton Blues
TTITLE19=I'm Always Whistling The Blues
TTITLE20=Roll Down The Line
TTITLE21=Old Black Crow
TTITLE22=No Low Down Hanging Around
TTITLE23=Maybe Next Week Sometime
EXTD=
EXTT0=
EXTT1=
EXTT2=
EXTT3=
EXTT4=
EXTT5=
EXTT6=
EXTT7=
EXTT8=
EXTT9=
EXTT10=
EXTT11=
EXTT12=
EXTT13=
EXTT14=
EXTT15=
EXTT16=
EXTT17=
EXTT18=
EXTT19=
EXTT20=
EXTT21=
EXTT22=
EXTT23=
PLAYORDER=
